<svg xmlns="http://www.w3.org/2000/svg" viewBox="0 0 800 188"><style>.st0{display:none;} .st1{display:inline;} .st2{fill:#FFFFFF;} .st3{fill:none;stroke:#9882CE;stroke-width:4;stroke-miterlimit:10;} .st4{fill:none;stroke:#404040;stroke-width:4;stroke-linecap:round;stroke-linejoin:round;stroke-miterlimit:10;} .st5{fill:#B3E3FF;stroke:#404040;stroke-width:4;stroke-miterlimit:10;} .st6{fill:#FFFFFF;stroke:#59AFE1;stroke-width:4;stroke-miterlimit:10;} .st7{fill:#FFFFFF;stroke:#404040;stroke-width:4;stroke-miterlimit:10;} .st8{fill:#B18BE8;stroke:#404040;stroke-width:4;stroke-linecap:round;stroke-linejoin:round;stroke-miterlimit:10;} .st9{fill:#404040;} .st10{fill:#CCCCCC;stroke:#404040;stroke-width:4;stroke-miterlimit:10;} .st11{fill:#FFFFFF;stroke:#404040;stroke-width:4;stroke-linecap:round;stroke-linejoin:round;stroke-miterlimit:10;} .st12{fill:#999999;} .st13{fill:#B3E3FF;stroke:#404040;stroke-width:4;stroke-linejoin:round;stroke-miterlimit:10;} .st14{fill:#59AFE1;stroke:#404040;stroke-width:4;stroke-linejoin:round;stroke-miterlimit:10;} .st15{fill:none;stroke:#CCCCCC;stroke-linecap:round;stroke-linejoin:round;stroke-miterlimit:10;} .st16{fill:none;stroke:#404040;stroke-width:4;stroke-miterlimit:10;} .st17{fill:#B18BE8;stroke:#404040;stroke-width:4;stroke-miterlimit:10;} .st18{fill:#FFFFFF;stroke:#6693ED;stroke-width:4;stroke-miterlimit:10;} .st19{fill:#4ED1A1;stroke:#404040;stroke-width:4;stroke-miterlimit:10;} .st20{fill:none;stroke:#4D4D4D;stroke-width:4;stroke-linecap:round;stroke-linejoin:round;stroke-miterlimit:10;} .st21{fill:none;stroke:#59AFE1;stroke-width:4;stroke-linecap:round;stroke-linejoin:round;stroke-miterlimit:10;} .st22{fill:none;stroke:#59AFE1;stroke-width:4;stroke-miterlimit:10;} .st23{fill:none;stroke:#CCCCCC;stroke-width:4;stroke-linecap:round;stroke-linejoin:round;stroke-miterlimit:10;} .st24{fill:#FFFFFF;stroke:#CCCCCC;stroke-width:4;stroke-linecap:round;stroke-linejoin:round;stroke-miterlimit:10;} .st25{fill:#FFFFFF;stroke:#404040;stroke-width:4;stroke-linejoin:round;stroke-miterlimit:10;} .st26{fill:#CCCCCC;} .st27{fill:#4ED1A1;stroke:#404040;stroke-width:4;stroke-linecap:round;stroke-linejoin:round;stroke-miterlimit:10;}</style><path class="st23" d="M282.8 119.6c0 22.8-18.5 41.3-41.3 41.3m41.3-41.3c0-22.8 18.5-41.3 41.3-41.3h43.7"/><path class="st16" d="M526.9 119.6c0 22.8-18.5 41.3-41.3 41.3m41.3-41.3c0-22.8 18.5-41.3 41.3-41.3h43.7"/><circle class="st14" cx="611.9" cy="78.3" r="21.2"/><path class="st16" d="M188.1 160.9h297.5"/><path class="st25" d="M209.3 160.9c0 11.7-9.5 21.2-21.2 21.2s-21.2-9.5-21.2-21.2 9.5-21.2 21.2-21.2c11.7.1 21.2 9.6 21.2 21.2zm179.6 0c0 11.7-9.5 21.2-21.2 21.2s-21.2-9.5-21.2-21.2 9.5-21.2 21.2-21.2c11.8.1 21.2 9.6 21.2 21.2zm76.7 0c0 11.7-9.5 21.2-21.2 21.2s-21.2-9.5-21.2-21.2 9.5-21.2 21.2-21.2c11.8.1 21.2 9.6 21.2 21.2z"/><circle class="st24" cx="367.8" cy="78.3" r="21.2"/><path class="st4" d="M588.6 45.3c-25.2-24.8-59.8-40.1-98-40.1s-72.8 15.3-98 40.1m198.9-12.3l-.2 15.4-15.4-.2"/></svg>