<svg id="Layer_1" data-name="Layer 1" xmlns="http://www.w3.org/2000/svg" width="565" height="599.97" viewBox="0 0 565 599.97"><title>01-update</title><path d="M240.1,15.7V5h3.7a4.93,4.93,0,0,1,5.1,5.3,4.93,4.93,0,0,1-5.1,5.3h-3.7v0.1Zm3.7-1.3c2,0,3.6-1.3,3.6-4s-1.6-4-3.6-4h-2.2v8h2.2Zm14-.8a3.27,3.27,0,0,1-3.2,2.3A3.6,3.6,0,0,1,251,12a3.54,3.54,0,0,1,3.4-3.8c2.2,0,3.5,1.5,3.5,3.8v0.4h-5.4a2.16,2.16,0,0,0,2.2,2.2,1.82,1.82,0,0,0,2-1.5l1.1,0.5h0Zm-1.4-2.3a1.79,1.79,0,0,0-2-1.8,2,2,0,0,0-2,1.8h4Zm5.9-2.8h1.6V9.8h-1.6v3.8a0.86,0.86,0,0,0,1,1,1.27,1.27,0,0,0,.6-0.1v1.2a7.72,7.72,0,0,1-1,.1,1.92,1.92,0,0,1-2-2.1v-4h-1.4V8.5h0.4A1,1,0,0,0,261,7.4V6.2h1.3V8.5Zm10.4,5.1a3.27,3.27,0,0,1-3.2,2.3,3.6,3.6,0,0,1-3.6-3.9,3.54,3.54,0,0,1,3.4-3.8c2.2,0,3.5,1.5,3.5,3.8v0.4h-5.4a2.16,2.16,0,0,0,2.2,2.2,1.82,1.82,0,0,0,2-1.5Zm-1.4-2.3a1.79,1.79,0,0,0-2-1.8,2,2,0,0,0-2,1.8h4Zm4.8,0.8a2.24,2.24,0,0,0,2.2,2.5,2,2,0,0,0,2-1.5l1.2,0.5a3.32,3.32,0,0,1-3.3,2.2,3.58,3.58,0,0,1-3.6-3.8,3.63,3.63,0,0,1,3.6-3.8,3.14,3.14,0,0,1,3.2,2.3l-1.3.5a1.87,1.87,0,0,0-1.9-1.5,2.33,2.33,0,0,0-2.1,2.6h0Zm9.8-3.6h1.6V9.8h-1.6v3.8a0.86,0.86,0,0,0,1,1,1.27,1.27,0,0,0,.6-0.1v1.2a7.72,7.72,0,0,1-1,.1,1.92,1.92,0,0,1-2-2.1v-4h-1.4V8.5h0.4a1,1,0,0,0,1.1-1.1V6.2h1.3V8.5Zm4.9-3.8a0.94,0.94,0,0,1,1,1,0.94,0.94,0,0,1-1,1A1,1,0,0,1,290.8,4.7Zm-0.7,11V8.5h1.4v7.2h-1.4Zm5.9,0h-1.4V8.5H296v1a2.41,2.41,0,0,1,2.2-1.2c1.7,0,2.6,1.2,2.6,2.9v4.6h-1.4V11.5a1.56,1.56,0,0,0-1.7-1.8,1.77,1.77,0,0,0-1.7,2v4Zm8.6,0a2.12,2.12,0,0,0,4.2-.5v-1a2.26,2.26,0,0,1-2.2,1.2,3.32,3.32,0,0,1-3.3-3.5,3.31,3.31,0,0,1,3.3-3.5,2.21,2.21,0,0,1,2.2,1.1v-1h1.4v6.7a3.3,3.3,0,0,1-3.6,3.6,3.11,3.11,0,0,1-3.3-2.7Zm4.3-3.9a2.05,2.05,0,0,0-2.1-2.3,2.11,2.11,0,0,0-2.1,2.3,2.05,2.05,0,0,0,2.1,2.3A2.11,2.11,0,0,0,308.9,11.8Zm10.6-.3,1.9-.3a0.65,0.65,0,0,0,.6-0.5,1.36,1.36,0,0,0-1.6-1.3,1.5,1.5,0,0,0-1.6,1.5l-1.4-.3a2.79,2.79,0,0,1,3-2.3c2.2,0,3,1.2,3,2.6v3.6c0,0.6.1,1,.1,1.2h-1.4c0-.2-0.1-0.5-0.1-1a2.57,2.57,0,0,1-2.3,1.2,2.2,2.2,0,1,1-.2-4.4h0Zm2.5,1.1V12.3l-2.2.3a1,1,0,0,0-1,1.1,1.06,1.06,0,0,0,1.2,1A1.86,1.86,0,0,0,322,12.6Zm10.7-2.9v5.9h-1.5V9.7h-1.3V8.5h1.3V7.2a2.34,2.34,0,0,1,2.4-2.5,0.91,0.91,0,0,1,.8.2V6.2a3.54,3.54,0,0,0-.6-0.1,1,1,0,0,0-1.1,1.2V8.4h1.7V9.7h-1.7Zm10.5,2.4a3.7,3.7,0,1,1-7.4,0A3.7,3.7,0,1,1,343.2,12.1Zm-1.5,0a2.23,2.23,0,1,0-4.4,0c0,1.7,1,2.6,2.2,2.6A2.34,2.34,0,0,0,341.7,12.1Zm8-2.2h-0.6c-1.2,0-2,.6-2,2.2v3.6h-1.4V8.5h1.4V9.8a2.27,2.27,0,0,1,2.2-1.4h0.5V9.9h-0.1Zm5.7,1.6,3.1,4.2h-1.8l-2.4-3.2-1,1v2.2H352V4.8h1.4v6.8l3.1-3.2h1.9l-3,3.1h0Zm10.4-6.8a0.94,0.94,0,0,1,1,1,0.94,0.94,0,0,1-1,1,1,1,0,0,1-1-1A1.08,1.08,0,0,1,365.8,4.7Zm-0.7,11V8.5h1.4v7.2h-1.4Zm6,0h-1.4V8.5h1.4v1a2.41,2.41,0,0,1,2.2-1.2c1.7,0,2.6,1.2,2.6,2.9v4.6h-1.4V11.5a1.56,1.56,0,0,0-1.7-1.8,1.77,1.77,0,0,0-1.7,2v4Zm14.1-7.2h1.6V9.8h-1.6v3.8a0.86,0.86,0,0,0,1,1,1.27,1.27,0,0,0,.6-0.1v1.2a7.72,7.72,0,0,1-1,.1,1.92,1.92,0,0,1-2-2.1v-4h-1.4V8.5h0.4a1,1,0,0,0,1.1-1.1V6.2h1.3V8.5Zm5.6,7.2h-1.4V4.8h1.4V9.3A2.53,2.53,0,0,1,393,8.2c1.7,0,2.6,1.2,2.6,2.9v4.6h-1.4V11.4a1.56,1.56,0,0,0-1.7-1.8c-1.1,0-1.6.8-1.7,1.9v4.2Zm14.1-2.1a3.27,3.27,0,0,1-3.2,2.3,3.6,3.6,0,0,1-3.6-3.9,3.54,3.54,0,0,1,3.4-3.8c2.2,0,3.5,1.5,3.5,3.8v0.4h-5.4a2.16,2.16,0,0,0,2.2,2.2,1.82,1.82,0,0,0,2-1.5Zm-1.4-2.3a1.79,1.79,0,0,0-2-1.8,2,2,0,0,0-2,1.8h4Zm9.9,4.4H412V4.8h1.4V9.3a2.53,2.53,0,0,1,2.2-1.1c1.7,0,2.6,1.2,2.6,2.9v4.6h-1.4V11.4a1.56,1.56,0,0,0-1.7-1.8c-1.1,0-1.6.8-1.7,1.9v4.2Zm8.4-11a0.94,0.94,0,0,1,1,1,0.94,0.94,0,0,1-1,1,1,1,0,0,1-1-1A1.08,1.08,0,0,1,421.8,4.7Zm-0.6,11V8.5h1.4v7.2h-1.4Zm5.1-2.4a1.51,1.51,0,0,0,1.7,1.3,1,1,0,0,0,1.2-1,1,1,0,0,0-.9-0.9l-1.2-.3a2,2,0,0,1-1.8-2,2.54,2.54,0,0,1,2.6-2.3,2.46,2.46,0,0,1,2.7,1.9l-1.2.5a1.45,1.45,0,0,0-1.5-1.2,1.13,1.13,0,0,0-1.2,1,1,1,0,0,0,.8.9l1.2,0.3a2.22,2.22,0,0,1,2,2.1,2.4,2.4,0,0,1-2.6,2.2,2.66,2.66,0,0,1-2.9-2.1l1.1-.4h0Zm8.8-4.8h1.6V9.8h-1.6v3.8a0.86,0.86,0,0,0,1,1,1.27,1.27,0,0,0,.6-0.1v1.2a7.72,7.72,0,0,1-1,.1,1.92,1.92,0,0,1-2-2.1v-4h-1.4V8.5h0.4a1,1,0,0,0,1.1-1.1V6.2h1.3V8.5ZM446,12.1a3.7,3.7,0,1,1-7.4,0A3.7,3.7,0,1,1,446,12.1Zm-1.4,0a2.23,2.23,0,1,0-4.4,0,2.34,2.34,0,0,0,2.2,2.6A2.4,2.4,0,0,0,444.6,12.1Zm8-2.2H452c-1.2,0-2,.6-2,2.2v3.6h-1.4V8.5H450V9.8a2.27,2.27,0,0,1,2.2-1.4h0.5V9.9h-0.1Zm2.7,8.8,1.8-3.8L454,8.5h1.6l2.2,5,2.2-5h1.5l-4.7,10.2h-1.5Zm15.5-2.8a2.68,2.68,0,0,1-2.7-2.9V8.5h1.4v4.3c0,1,.4,1.9,1.6,1.9a1.65,1.65,0,0,0,1.7-1.8V8.5h1.4v5.9a4.15,4.15,0,0,0,.1,1.3H473c0-.2-0.1-0.6-0.1-0.9A2.26,2.26,0,0,1,470.8,15.9Zm7.2-2.6a1.51,1.51,0,0,0,1.7,1.3,1,1,0,0,0,1.2-1,1,1,0,0,0-.9-0.9l-1.2-.3a2,2,0,0,1-1.8-2,2.54,2.54,0,0,1,2.6-2.3,2.46,2.46,0,0,1,2.7,1.9l-1.2.5a1.45,1.45,0,0,0-1.5-1.2,1.13,1.13,0,0,0-1.2,1,1,1,0,0,0,.8.9l1.2,0.3a2.22,2.22,0,0,1,2,2.1,2.4,2.4,0,0,1-2.6,2.2,2.66,2.66,0,0,1-2.9-2.1l1.1-.4h0Zm7.6-8.6a0.94,0.94,0,0,1,1,1,0.94,0.94,0,0,1-1,1A1,1,0,0,1,485.6,4.7Zm-0.7,11V8.5h1.4v7.2h-1.4Zm6,0h-1.4V8.5h1.4v1a2.41,2.41,0,0,1,2.2-1.2c1.7,0,2.6,1.2,2.6,2.9v4.6h-1.4V11.5a1.56,1.56,0,0,0-1.7-1.8,1.77,1.77,0,0,0-1.7,2v4Zm8.6,0a2.12,2.12,0,0,0,4.2-.5v-1a2.26,2.26,0,0,1-2.2,1.2,3.32,3.32,0,0,1-3.3-3.5,3.31,3.31,0,0,1,3.3-3.5,2.21,2.21,0,0,1,2.2,1.1v-1h1.4v6.7a3.3,3.3,0,0,1-3.6,3.6,3.11,3.11,0,0,1-3.3-2.7Zm4.2-3.9a2.05,2.05,0,0,0-2.1-2.3,2.11,2.11,0,0,0-2.1,2.3A2.11,2.11,0,1,0,503.7,11.8Zm12.9-1.9H516c-1.2,0-2,.6-2,2.2v3.6h-1.4V8.5H514V9.8a2.27,2.27,0,0,1,2.2-1.4h0.5V9.9h-0.1Zm3.9,1.6,1.9-.3a0.65,0.65,0,0,0,.6-0.5,1.36,1.36,0,0,0-1.6-1.3,1.5,1.5,0,0,0-1.6,1.5l-1.4-.3a2.79,2.79,0,0,1,3-2.3c2.2,0,3,1.2,3,2.6v3.6c0,0.6.1,1,.1,1.2h-1.4c0-.2-0.1-0.5-0.1-1a2.57,2.57,0,0,1-2.3,1.2,2.21,2.21,0,0,1-2.4-2.2A2.37,2.37,0,0,1,520.5,11.5Zm2.6,1.1V12.3l-2.2.3a1.11,1.11,0,0,0-1.1,1.1,1.06,1.06,0,0,0,1.2,1A1.89,1.89,0,0,0,523.1,12.6Zm5.7,3.1h-1.4V8.5h1.4v1A2.41,2.41,0,0,1,531,8.3c1.7,0,2.6,1.2,2.6,2.9v4.6h-1.4V11.5a1.56,1.56,0,0,0-1.7-1.8,1.77,1.77,0,0,0-1.7,2v4h0Zm8.6,0a2.12,2.12,0,0,0,4.2-.5v-1a2.26,2.26,0,0,1-2.2,1.2,3.32,3.32,0,0,1-3.3-3.5,3.31,3.31,0,0,1,3.3-3.5,2.21,2.21,0,0,1,2.2,1.1v-1H543v6.7a3.3,3.3,0,0,1-3.6,3.6,3.11,3.11,0,0,1-3.3-2.7l1.3-.4h0Zm4.3-3.9a2.05,2.05,0,0,0-2.1-2.3,2.11,2.11,0,0,0-2.1,2.3,2.05,2.05,0,0,0,2.1,2.3A2.11,2.11,0,0,0,541.7,11.8Zm10.6,1.8a3.27,3.27,0,0,1-3.2,2.3,3.6,3.6,0,0,1-3.6-3.9,3.54,3.54,0,0,1,3.4-3.8c2.2,0,3.5,1.5,3.5,3.8v0.4H547a2.16,2.16,0,0,0,2.2,2.2,1.82,1.82,0,0,0,2-1.5Zm-1.4-2.3a1.79,1.79,0,0,0-2-1.8,2,2,0,0,0-2,1.8h4Zm4.6,2a1.51,1.51,0,0,0,1.7,1.3,1,1,0,0,0,1.2-1,1,1,0,0,0-.9-0.9l-1.2-.3a2,2,0,0,1-1.8-2,2.54,2.54,0,0,1,2.6-2.3,2.46,2.46,0,0,1,2.7,1.9l-1.2.5a1.45,1.45,0,0,0-1.5-1.2,1.13,1.13,0,0,0-1.2,1,1,1,0,0,0,.8.9l1.2,0.3a2.22,2.22,0,0,1,2,2.1,2.4,2.4,0,0,1-2.6,2.2,2.66,2.66,0,0,1-2.9-2.1l1.1-.4h0Z" transform="translate(-117.5 -4.7)" fill="#999"/><path d="M330.5,345.4a41.06,41.06,0,0,1-41,41m41-41a41.06,41.06,0,0,1,41-41H586.6" transform="translate(-117.5 -4.7)" fill="none" stroke="#404040" stroke-miterlimit="10" stroke-width="4"/><circle cx="297.4" cy="299.7" r="21" fill="#4ed1a1" stroke="#404040" stroke-miterlimit="10" stroke-width="4"/><circle cx="393.7" cy="299.7" r="21" fill="#4ed1a1" stroke="#404040" stroke-miterlimit="10" stroke-width="4"/><circle cx="489.9" cy="299.7" r="21" fill="#4ed1a1" stroke="#404040" stroke-miterlimit="10" stroke-width="4"/><path d="M119.5,386.4h170" transform="translate(-117.5 -4.7)" fill="none" stroke="#404040" stroke-miterlimit="10" stroke-width="4"/><circle cx="23" cy="381.7" r="21" fill="#fff" stroke="#404040" stroke-miterlimit="10" stroke-width="4"/><circle cx="119" cy="381.7" r="21" fill="#fff" stroke="#404040" stroke-miterlimit="10" stroke-width="4"/><path d="M272.8,386.4H488.9" transform="translate(-117.5 -4.7)" fill="none" stroke="#404040" stroke-miterlimit="10" stroke-width="4"/><circle cx="296.4" cy="381.7" r="21" fill="#b3e3ff" stroke="#404040" stroke-miterlimit="10" stroke-width="4"/><circle cx="392.4" cy="381.7" r="21" fill="#b3e3ff" stroke="#404040" stroke-linejoin="round" stroke-width="4"/><path d="M557.4,163.4h100v50h-100v-50Z" transform="translate(-117.5 -4.7)" fill="#4ed1a1" stroke="#404040" stroke-linecap="round" stroke-linejoin="round" stroke-width="4"/><path d="M580.6,194.4V183.8h6.5v1.4h-5v3.4h4.5V190h-4.5v4.5h-1.5v-0.1Zm14.6-2.1a3.27,3.27,0,0,1-3.2,2.3,3.6,3.6,0,0,1-3.6-3.9,3.54,3.54,0,0,1,3.4-3.8c2.2,0,3.5,1.5,3.5,3.8v0.4h-5.4a2.16,2.16,0,0,0,2.2,2.2,1.82,1.82,0,0,0,2-1.5Zm-1.4-2.3a1.79,1.79,0,0,0-2-1.8,2,2,0,0,0-2,1.8h4Zm5.8,0.3,1.9-.3a0.65,0.65,0,0,0,.6-0.5,1.36,1.36,0,0,0-1.6-1.3,1.5,1.5,0,0,0-1.6,1.5l-1.4-.3a2.79,2.79,0,0,1,3-2.3c2.2,0,3,1.2,3,2.6v3.6c0,0.6.1,1,.1,1.2h-1.4c0-.2-0.1-0.5-0.1-1a2.57,2.57,0,0,1-2.3,1.2,2.21,2.21,0,0,1-2.4-2.2A2.16,2.16,0,0,1,599.6,190.3Zm2.5,1V191l-2.2.3a1.11,1.11,0,0,0-1.1,1.1,1.06,1.06,0,0,0,1.2,1A1.85,1.85,0,0,0,602.1,191.3Zm6.2-4.1h1.6v1.3h-1.6v3.8a0.86,0.86,0,0,0,1,1,1.27,1.27,0,0,0,.6-0.1v1.2a7.72,7.72,0,0,1-1,.1,1.92,1.92,0,0,1-2-2.1v-4h-1.4v-1.3h0.4A1,1,0,0,0,607,186v-1.2h1.3v2.4h0Zm6.8,7.4a2.68,2.68,0,0,1-2.7-2.9v-4.5h1.4v4.3c0,1,.4,1.9,1.6,1.9a1.65,1.65,0,0,0,1.7-1.8v-4.4h1.4v5.9a4.15,4.15,0,0,0,.1,1.3h-1.4c0-.2-0.1-0.6-0.1-0.9a1.86,1.86,0,0,1-2,1.1h0Zm10.7-6h-0.6c-1.2,0-2,.6-2,2.2v3.6h-1.4v-7.2h1.4v1.3a2.27,2.27,0,0,1,2.2-1.4h0.5v1.5h-0.1Zm8.4,3.7a3.27,3.27,0,0,1-3.2,2.3,3.6,3.6,0,0,1-3.6-3.9,3.54,3.54,0,0,1,3.4-3.8c2.2,0,3.5,1.5,3.5,3.8v0.4h-5.4a2.16,2.16,0,0,0,2.2,2.2,1.82,1.82,0,0,0,2-1.5Zm-1.4-2.3a1.79,1.79,0,0,0-2-1.8,2,2,0,0,0-2,1.8h4ZM473.7,97.4V90.2H475v1a2.63,2.63,0,0,1,2.2-1.2,2.24,2.24,0,0,1,2.2,1.4,2.72,2.72,0,0,1,2.4-1.4,2.47,2.47,0,0,1,2.5,2.7v4.7h-1.4V92.9a1.44,1.44,0,0,0-1.5-1.6,1.71,1.71,0,0,0-1.7,1.8v4.4h-1.4V93a1.4,1.4,0,0,0-1.5-1.6,1.71,1.71,0,0,0-1.7,1.8v4.3h-1.4V97.4ZM489,93.3l2-.3a0.65,0.65,0,0,0,.6-0.5,1.36,1.36,0,0,0-1.6-1.3,1.5,1.5,0,0,0-1.6,1.5l-1.4-.3a2.79,2.79,0,0,1,3-2.3c2.2,0,3,1.2,3,2.6v3.6c0,0.6.1,1,.1,1.2h-1.4c0-.2-0.1-0.5-0.1-1a2.57,2.57,0,0,1-2.3,1.2,2.21,2.21,0,0,1-2.4-2.2,2.07,2.07,0,0,1,2.1-2.2h0Zm2.5,1V94l-2.2.3a1,1,0,0,0-1,1.1,1.06,1.06,0,0,0,1.2,1A1.82,1.82,0,0,0,491.5,94.3Zm5,0.8a1.51,1.51,0,0,0,1.7,1.3,1,1,0,0,0,1.2-1,1,1,0,0,0-.9-0.9l-1.2-.3a2,2,0,0,1-1.8-2,2.54,2.54,0,0,1,2.6-2.3,2.46,2.46,0,0,1,2.7,1.9l-1.2.5a1.45,1.45,0,0,0-1.5-1.2,1.13,1.13,0,0,0-1.2,1,1,1,0,0,0,.8.9l1.2,0.3a2.22,2.22,0,0,1,2,2.1,2.4,2.4,0,0,1-2.6,2.2,2.66,2.66,0,0,1-2.9-2.1l1.1-.4h0Zm8.8-4.9h1.6v1.3h-1.6v3.8a0.86,0.86,0,0,0,1,1,1.27,1.27,0,0,0,.6-0.1v1.2a7.72,7.72,0,0,1-1,.1,1.92,1.92,0,0,1-2-2.1v-4h-1.4V90.1h0.4A1,1,0,0,0,504,89V87.8h1.3v2.4Zm10.4,5.1a3.27,3.27,0,0,1-3.2,2.3,3.6,3.6,0,0,1-3.6-3.9,3.54,3.54,0,0,1,3.4-3.8c2.2,0,3.5,1.5,3.5,3.8v0.4h-5.4a2.16,2.16,0,0,0,2.2,2.2,1.82,1.82,0,0,0,2-1.5l1.1,0.5h0ZM514.2,93a1.79,1.79,0,0,0-2-1.8,2,2,0,0,0-2,1.8h4Zm8.1-1.4h-0.6c-1.2,0-2,.6-2,2.2v3.6h-1.4V90.2h1.4v1.3a2.27,2.27,0,0,1,2.2-1.4h0.5v1.5h-0.1Zm1.8,3.8a1,1,0,0,1,1,1,1,1,0,1,1-2,0A1,1,0,0,1,524.1,95.4Zm4.9,0a1,1,0,0,1,1,1,1,1,0,0,1-2,0A1,1,0,0,1,529,95.4Zm5.9-4v5.9h-1.5V91.4h-1.3V90.1h1.3V89a2.34,2.34,0,0,1,2.4-2.5,0.91,0.91,0,0,1,.8.2V88a3.54,3.54,0,0,0-.6-0.1,1,1,0,0,0-1.1,1.2v1.1h1.7v1.3h-1.7V91.4Zm10,3.9a3.27,3.27,0,0,1-3.2,2.3,3.6,3.6,0,0,1-3.6-3.9,3.54,3.54,0,0,1,3.4-3.8c2.2,0,3.5,1.5,3.5,3.8v0.4h-5.4a2.16,2.16,0,0,0,2.2,2.2,1.82,1.82,0,0,0,2-1.5ZM543.5,93a1.79,1.79,0,0,0-2-1.8,2,2,0,0,0-2,1.8h4Zm5.8,0.3,1.9-.3a0.65,0.65,0,0,0,.6-0.5,1.36,1.36,0,0,0-1.6-1.3,1.5,1.5,0,0,0-1.6,1.5l-1.4-.3a2.79,2.79,0,0,1,3-2.3c2.2,0,3,1.2,3,2.6v3.6c0,0.6.1,1,.1,1.2h-1.4c0-.2-0.1-0.5-0.1-1a2.57,2.57,0,0,1-2.3,1.2,2.21,2.21,0,0,1-2.4-2.2,2.16,2.16,0,0,1,2.2-2.2h0Zm2.5,1V94l-2.2.3a1,1,0,0,0-1,1.1,1.06,1.06,0,0,0,1.2,1A1.86,1.86,0,0,0,551.8,94.3Zm6.2-4.1h1.6v1.3H558v3.8a0.86,0.86,0,0,0,1,1,1.27,1.27,0,0,0,.6-0.1v1.2a7.72,7.72,0,0,1-1,.1,1.92,1.92,0,0,1-2-2.1v-4h-1.4V90.1h0.4a1,1,0,0,0,1.1-1.1V87.8H558v2.4h0Zm6.8,7.4a2.68,2.68,0,0,1-2.7-2.9V90.2h1.4v4.3c0,1,.4,1.9,1.6,1.9a1.65,1.65,0,0,0,1.7-1.8V90.2h1.4v5.9a4.15,4.15,0,0,0,.1,1.3H567c0-.2-0.1-0.6-0.1-0.9a2.08,2.08,0,0,1-2.1,1.1h0Zm10.6-6h-0.6c-1.2,0-2,.6-2,2.2v3.6h-1.4V90.2h1.4v1.3a2.27,2.27,0,0,1,2.2-1.4h0.5v1.5h-0.1Zm8.5,3.7a3.27,3.27,0,0,1-3.2,2.3,3.6,3.6,0,0,1-3.6-3.9,3.54,3.54,0,0,1,3.4-3.8c2.2,0,3.5,1.5,3.5,3.8v0.4h-5.4a2.16,2.16,0,0,0,2.2,2.2,1.82,1.82,0,0,0,2-1.5ZM582.5,93a1.79,1.79,0,0,0-2-1.8,2,2,0,0,0-2,1.8h4Z" transform="translate(-117.5 -4.7)" fill="#404040"/><path d="M607.4,259.2V235.7m10.9,14.8-10.9,10.9-10.8-10.9" transform="translate(-117.5 -4.7)" fill="none" stroke="#404040" stroke-linecap="round" stroke-linejoin="round" stroke-width="4"/><path d="M459.9,478.3h100v50h-100v-50Z" transform="translate(-117.5 -4.7)" fill="#b3e3ff" stroke="#404040" stroke-linejoin="round" stroke-width="4"/><path d="M495.2,509.3V501l-3.6,8.3h-1.3l-3.6-8.3v8.3h-1.5V498.7h2l3.7,8.7,3.8-8.7h2v10.6h-1.5Zm6.4-4.1,1.9-.3a0.65,0.65,0,0,0,.6-0.5,1.36,1.36,0,0,0-1.6-1.3,1.5,1.5,0,0,0-1.6,1.5l-1.4-.3a2.79,2.79,0,0,1,3-2.3c2.2,0,3,1.2,3,2.6v3.6c0,0.6.1,1,.1,1.2h-1.4c0-.2-0.1-0.5-0.1-1a2.57,2.57,0,0,1-2.3,1.2,2.21,2.21,0,0,1-2.4-2.2,2.37,2.37,0,0,1,2.2-2.2h0Zm2.5,1v-0.3l-2.2.3a1.11,1.11,0,0,0-1.1,1.1,1.06,1.06,0,0,0,1.2,1C503.2,508.4,504.1,507.8,504.1,506.2Zm5,0.8a1.51,1.51,0,0,0,1.7,1.3,1,1,0,0,0,1.2-1,1,1,0,0,0-.9-0.9l-1.2-.3a2,2,0,0,1-1.8-2,2.54,2.54,0,0,1,2.6-2.3,2.46,2.46,0,0,1,2.7,1.9l-1.2.5a1.45,1.45,0,0,0-1.5-1.2,1.13,1.13,0,0,0-1.2,1,1,1,0,0,0,.8.9l1.2,0.3a2.22,2.22,0,0,1,2,2.1,2.4,2.4,0,0,1-2.6,2.2,2.66,2.66,0,0,1-2.9-2.1Zm8.8-4.9h1.6v1.3h-1.6v3.8a0.86,0.86,0,0,0,1,1,1.27,1.27,0,0,0,.6-0.1v1.2a7.72,7.72,0,0,1-1,.1,1.92,1.92,0,0,1-2-2.1v-4h-1.4V502h0.4a1,1,0,0,0,1.1-1.1v-1.2h1.3v2.4h0Zm10.4,5.2a3.27,3.27,0,0,1-3.2,2.3,3.6,3.6,0,0,1-3.6-3.9,3.54,3.54,0,0,1,3.4-3.8c2.2,0,3.5,1.5,3.5,3.8v0.4H523a2.16,2.16,0,0,0,2.2,2.2,1.82,1.82,0,0,0,2-1.5Zm-1.4-2.3a1.79,1.79,0,0,0-2-1.8,2,2,0,0,0-2,1.8h4Zm8-1.5h-0.6c-1.2,0-2,.6-2,2.2v3.6h-1.4v-7.2h1.4v1.3a2.27,2.27,0,0,1,2.2-1.4H535v1.5h-0.1Z" transform="translate(-117.5 -4.7)" fill="#404040"/><path d="M509.9,431.8v23.5M499,440.5l10.9-10.9,10.9,10.9M376.5,143.3v-14h304v14m-152-14v-14m55.4,433v14h-207v-14m112,14v14" transform="translate(-117.5 -4.7)" fill="none" stroke="#404040" stroke-linecap="round" stroke-linejoin="round" stroke-width="4"/><path d="M493.29,604.37v-7.2h1.3v1a2.63,2.63,0,0,1,2.2-1.2,2.24,2.24,0,0,1,2.2,1.4,2.72,2.72,0,0,1,2.4-1.4,2.47,2.47,0,0,1,2.5,2.7v4.7h-1.4v-4.5a1.44,1.44,0,0,0-1.5-1.6,1.71,1.71,0,0,0-1.7,1.8v4.4h-1.4V600a1.4,1.4,0,0,0-1.5-1.6,1.71,1.71,0,0,0-1.7,1.8v4.3h-1.4v-0.1Z" transform="translate(-117.5 -4.7)" fill="#404040"/><path d="M512.49,603.27v-3.6c0-1.4-.8-2.6-3-2.6a2.79,2.79,0,0,0-3,2.3l1.4,0.3a1.5,1.5,0,0,1,1.6-1.5,1.36,1.36,0,0,1,1.6,1.3,0.65,0.65,0,0,1-.6.5l-1.9.3a2.29,2.29,0,0,0-2.2,2.2,2.21,2.21,0,0,0,2.4,2.2,2.57,2.57,0,0,0,2.3-1.2c0,0.5.1,0.8,0.1,1h1.4C512.59,604.27,512.49,603.87,512.49,603.27Zm-1.4-1.9a1.87,1.87,0,0,1-2,2.1,1.06,1.06,0,0,1-1.2-1,1,1,0,0,1,1-1.1l2.2-.3v0.3Z" transform="translate(-117.5 -4.7)" fill="#404040"/><path d="M516.09,602.07a1.51,1.51,0,0,0,1.7,1.3,1,1,0,0,0,1.2-1,1,1,0,0,0-.9-0.9l-1.2-.3a2,2,0,0,1-1.8-2,2.54,2.54,0,0,1,2.6-2.3,2.46,2.46,0,0,1,2.7,1.9l-1.2.5a1.45,1.45,0,0,0-1.5-1.2,1.13,1.13,0,0,0-1.2,1,1,1,0,0,0,.8.9l1.2,0.3a2.22,2.22,0,0,1,2,2.1,2.4,2.4,0,0,1-2.6,2.2,2.66,2.66,0,0,1-2.9-2.1l1.1-.4h0Z" transform="translate(-117.5 -4.7)" fill="#404040"/><path d="M524.89,597.17h1.6v1.3h-1.6v3.8a0.86,0.86,0,0,0,1,1,1.27,1.27,0,0,0,.6-0.1v1.2a7.72,7.72,0,0,1-1,.1,1.92,1.92,0,0,1-2-2.1v-4h-1.4v-1.3h0.4a1,1,0,0,0,1.1-1.1v-1.2h1.3v2.4h0Z" transform="translate(-117.5 -4.7)" fill="#404040"/><path d="M535.39,600.77c0-2.3-1.3-3.8-3.5-3.8a3.54,3.54,0,0,0-3.4,3.8,3.6,3.6,0,0,0,3.6,3.9,3.27,3.27,0,0,0,3.2-2.3l-1.1-.5a1.82,1.82,0,0,1-2,1.5,2.16,2.16,0,0,1-2.2-2.2h5.4v-0.4Zm-5.5-.7a2,2,0,0,1,2-1.8,1.79,1.79,0,0,1,2,1.8h-4Z" transform="translate(-117.5 -4.7)" fill="#404040"/><path d="M541.89,598.67h-0.6c-1.2,0-2,.6-2,2.2v3.6h-1.4v-7.2h1.4v1.3a2.27,2.27,0,0,1,2.2-1.4H542v1.5h-0.1Z" transform="translate(-117.5 -4.7)" fill="#404040"/><path d="M484.5,602.37a1,1,0,0,1,1,1,1,1,0,0,1-2,0A1,1,0,0,1,484.5,602.37Z" transform="translate(-117.5 -4.7)" fill="#404040"/><path d="M489.4,602.37a1,1,0,0,1,1,1,1,1,0,1,1-2,0A1,1,0,0,1,489.4,602.37Z" transform="translate(-117.5 -4.7)" fill="#404040"/><path d="M432.24,598.47v5.9h-1.5v-5.9h-1.3v-1.3h1.3V596a2.34,2.34,0,0,1,2.4-2.5,0.91,0.91,0,0,1,.8.2V595a3.54,3.54,0,0,0-.6-0.1,1,1,0,0,0-1.1,1.2v1.1h1.7v1.3h-1.7Z" transform="translate(-117.5 -4.7)" fill="#404040"/><path d="M442.34,600.77c0-2.3-1.3-3.8-3.5-3.8a3.54,3.54,0,0,0-3.4,3.8,3.6,3.6,0,0,0,3.6,3.9,3.27,3.27,0,0,0,3.2-2.3l-1.1-.5a1.82,1.82,0,0,1-2,1.5,2.16,2.16,0,0,1-2.2-2.2h5.4v-0.4Zm-5.5-.7a2,2,0,0,1,2-1.8,1.79,1.79,0,0,1,2,1.8h-4Z" transform="translate(-117.5 -4.7)" fill="#404040"/><path d="M450.54,603.27v-3.6c0-1.4-.8-2.6-3-2.6a2.79,2.79,0,0,0-3,2.3l1.4,0.3a1.5,1.5,0,0,1,1.6-1.5,1.36,1.36,0,0,1,1.6,1.3,0.65,0.65,0,0,1-.6.5l-1.9.3a2.2,2.2,0,1,0,.2,4.4,2.57,2.57,0,0,0,2.3-1.2c0,0.5.1,0.8,0.1,1h1.4C450.64,604.27,450.54,603.87,450.54,603.27Zm-1.4-1.9a1.91,1.91,0,0,1-2,2.1,1.06,1.06,0,0,1-1.2-1,1,1,0,0,1,1-1.1l2.2-.3v0.3Z" transform="translate(-117.5 -4.7)" fill="#404040"/><path d="M455.34,597.17h1.6v1.3h-1.6v3.8a0.86,0.86,0,0,0,1,1,1.27,1.27,0,0,0,.6-0.1v1.2a7.72,7.72,0,0,1-1,.1,1.92,1.92,0,0,1-2-2.1v-4h-1.4v-1.3h0.4A1,1,0,0,0,454,596v-1.2h1.3v2.4h0Z" transform="translate(-117.5 -4.7)" fill="#404040"/><path d="M462.14,604.67a2.68,2.68,0,0,1-2.7-2.9v-4.5h1.4v4.3c0,1,.4,1.9,1.6,1.9a1.65,1.65,0,0,0,1.7-1.8v-4.4h1.4v5.9a4.15,4.15,0,0,0,.1,1.3h-1.4c0-.2-0.1-0.6-0.1-0.9a2,2,0,0,1-2,1.1h0Z" transform="translate(-117.5 -4.7)" fill="#404040"/><path d="M472.74,598.67h-0.6c-1.2,0-2,.6-2,2.2v3.6h-1.4v-7.2h1.4v1.3a2.27,2.27,0,0,1,2.2-1.4h0.5v1.5h-0.1Z" transform="translate(-117.5 -4.7)" fill="#404040"/><path d="M481.34,600.77c0-2.3-1.3-3.8-3.5-3.8a3.54,3.54,0,0,0-3.4,3.8,3.6,3.6,0,0,0,3.6,3.9,3.27,3.27,0,0,0,3.2-2.3l-1.1-.5a1.82,1.82,0,0,1-2,1.5,2.16,2.16,0,0,1-2.2-2.2h5.4v-0.4Zm-5.5-.7a2,2,0,0,1,2-1.8,1.79,1.79,0,0,1,2,1.8h-4Z" transform="translate(-117.5 -4.7)" fill="#404040"/></svg>